<?xml version="1.0" encoding="iso-8859-1"?>
<!-- Generator: Adobe Illustrator 19.0.0, SVG Export Plug-In . SVG Version: 6.00 Build 0)  -->
<svg version="1.1" id="Capa_1" xmlns="http://www.w3.org/2000/svg" xmlns:xlink="http://www.w3.org/1999/xlink" x="0px" y="0px"
	 viewBox="0 0 480.218 480.218" style="enable-background:new 0 0 480.218 480.218;" xml:space="preserve">
<g>
	<g>
		<path d="M471.366,228.832c-1.946-7.873-7.975-14.091-15.784-16.28c-7.278-1.875-15.009,0.126-20.464,5.296l-34.744,20.84
			l-53.88-38.44c-46.479-37.182-107.468-50.94-165.408-37.312l-19.896,4.688c-40.038,9.331-76.038,31.235-102.728,62.504
			l-56.536,65.96c-2.541,2.964-2.571,7.329-0.072,10.328c27.106,32.513,62.483,57.111,102.4,71.2l19.736,6.96
			c1.672,0.592,3.368,1.104,5.048,1.664c6.171,26.261,23.714,48.411,47.864,60.432c7.185,3.601,15.929,0.696,19.53-6.489
			c1.382-2.758,1.852-5.884,1.342-8.927l-5.192-31.144c10.686,1.168,21.427,1.763,32.176,1.784c6.8,0,13.616-0.227,20.448-0.68
			c35.613-1.696,70.565-10.25,102.936-25.192c4.545-2.165,9.211-4.064,13.976-5.688l36.92-12.304l36.376,21.824
			c4.94,3.888,11.513,5.011,17.464,2.984c9.248-3.357,16.279-11.012,18.84-20.512C483.17,318.551,483.049,272.549,471.366,228.832z
			 M128.942,369.384v-0.032l-19.36-6.832c-35.044-12.368-66.371-33.438-91.04-61.232l52.072-60.744
			c12.54-14.65,27.389-27.154,43.96-37.016C142.398,241.136,146.398,329.136,128.942,369.384z M147.43,391.816v-0.064
			c9.488,2.512,19.056,4.552,28.704,6.12c-0.012,0.227-0.012,0.453,0,0.68l5.4,32.44
			C165.846,422.434,153.746,408.534,147.43,391.816z M456.278,358.144v-0.064c-1.156,4.233-4.173,7.712-8.2,9.456
			c-0.987,0.458-2.153,0.282-2.96-0.448c-0.313-0.265-0.647-0.503-1-0.712l-40-24c-2.003-1.202-4.432-1.468-6.648-0.728
			l-40.408,13.472c-5.343,1.811-10.576,3.932-15.672,6.352c-30.587,14.094-63.607,22.153-97.248,23.736
			c-33.72,2.283-67.578-1.433-100-10.976c18.488-44.664,14.256-135.584-15.344-178.24c11.536-5.548,23.635-9.839,36.088-12.8
			l19.896-4.68c35.545-8.426,72.828-5.631,106.72,8c16.337,6.562,31.615,15.504,45.336,26.536L395.35,254.8
			c2.601,1.864,6.062,1.999,8.8,0.344l40-24c0.558-0.338,1.074-0.74,1.536-1.2c1.452-1.644,3.684-2.367,5.824-1.888
			c2.288,0.759,3.99,2.691,4.456,5.056C466.737,274.08,466.844,317.123,456.278,358.144z"/>
	</g>
</g>
<g>
	<g>
		<path d="M95.998,256.248c-13.255,0-24,10.745-24,24s10.745,24,24,24s24-10.745,24-24S109.253,256.248,95.998,256.248z
			 M95.998,288.248c-4.418,0-8-3.582-8-8s3.582-8,8-8s8,3.582,8,8S100.416,288.248,95.998,288.248z"/>
	</g>
</g>
<g>
	<g>
		<path d="M218.102,302.232c5.602-13.736,2.438-29.491-8.032-40c6.647-16.221,0.963-34.88-13.6-44.64
			c-3.676-2.452-8.644-1.46-11.096,2.216c-2.452,3.676-1.46,8.644,2.216,11.096c9.569,6.391,12.156,19.323,5.784,28.904
			c-2.452,3.675-1.461,8.643,2.214,11.095c0.001,0,0.001,0.001,0.002,0.001c9.569,6.391,12.156,19.323,5.784,28.904
			c-2.452,3.675-1.461,8.643,2.214,11.095c0.001,0,0.001,0.001,0.002,0.001c9.569,6.391,12.156,19.323,5.784,28.904
			c-2.452,3.676-1.46,8.644,2.216,11.096c3.676,2.452,8.644,1.46,11.096-2.216C232.394,334.082,230.477,314.66,218.102,302.232z"/>
	</g>
</g>
<g>
	<g>
		<path d="M269.254,302.232c5.602-13.736,2.438-29.491-8.032-40c6.647-16.221,0.963-34.88-13.6-44.64
			c-3.676-2.452-8.644-1.46-11.096,2.216s-1.46,8.644,2.216,11.096c9.569,6.391,12.156,19.323,5.784,28.904
			c-2.452,3.675-1.461,8.643,2.214,11.095c0.001,0,0.001,0.001,0.002,0.001c9.569,6.391,12.156,19.323,5.784,28.904
			c-2.452,3.675-1.461,8.643,2.214,11.095c0.001,0,0.001,0.001,0.002,0.001c9.569,6.391,12.156,19.323,5.784,28.904
			c-2.452,3.676-1.46,8.644,2.216,11.096s8.644,1.46,11.096-2.216C283.546,334.082,281.629,314.66,269.254,302.232z"/>
	</g>
</g>
<g>
	<g>
		<path d="M320.406,302.232c5.602-13.736,2.438-29.491-8.032-40c6.654-16.221,0.968-34.884-13.6-44.64
			c-3.676-2.452-8.644-1.46-11.096,2.216s-1.46,8.644,2.216,11.096c9.569,6.391,12.156,19.323,5.784,28.904
			c-2.452,3.675-1.461,8.643,2.214,11.095c0.001,0,0.001,0.001,0.002,0.001c9.569,6.391,12.156,19.323,5.784,28.904
			c-2.452,3.675-1.461,8.643,2.214,11.095c0.001,0,0.001,0.001,0.002,0.001c9.569,6.391,12.156,19.323,5.784,28.904
			c-2.452,3.676-1.46,8.644,2.216,11.096s8.644,1.46,11.096-2.216C334.698,334.082,332.781,314.66,320.406,302.232z"/>
	</g>
</g>
<g>
	<g>
		<path d="M446.646,251.808c-2.452-3.676-7.42-4.668-11.096-2.216l-24,16c-3.676,2.451-4.669,7.418-2.218,11.094
			c1.486,2.228,3.988,3.565,6.666,3.562c1.578-0.001,3.12-0.469,4.432-1.344l24-16C448.106,260.452,449.098,255.484,446.646,251.808
			z"/>
	</g>
</g>
<g>
	<g>
		<path d="M439.998,288.248h-24c-4.418,0-8,3.582-8,8s3.582,8,8,8h24c4.418,0,8-3.582,8-8S444.416,288.248,439.998,288.248z"/>
	</g>
</g>
<g>
	<g>
		<path d="M442.526,328.656l-24-8c-4.197-1.396-8.732,0.875-10.128,5.072s0.875,8.732,5.072,10.128l24,8
			c4.197,1.396,8.732-0.875,10.128-5.072C448.994,334.587,446.724,330.053,442.526,328.656z"/>
	</g>
</g>
<g>
	<g>
		<path d="M179.19,80.768c-4.081-9.297-4.259-19.842-0.496-29.272l3.464-8.096c1.877-4,0.156-8.764-3.844-10.641
			c-4-1.877-8.764-0.156-10.641,3.844c-0.076,0.162-0.146,0.326-0.211,0.492l-3.464,8.096c-5.627,13.679-5.337,29.078,0.8,42.536
			c4.081,9.297,4.259,19.842,0.496,29.272l-3.472,8.096c-1.877,4-0.156,8.764,3.844,10.641c4,1.877,8.764,0.156,10.641-3.844
			c0.076-0.162,0.146-0.326,0.211-0.492l3.472-8.096C185.617,109.625,185.328,94.226,179.19,80.768z"/>
	</g>
</g>
<g>
	<g>
		<path d="M251.19,80.768c-4.081-9.297-4.259-19.842-0.496-29.272l3.464-8.096c1.877-4,0.156-8.764-3.844-10.641
			c-4-1.877-8.764-0.156-10.641,3.844c-0.076,0.162-0.146,0.326-0.211,0.492l-3.464,8.096c-5.627,13.679-5.337,29.078,0.8,42.536
			c4.081,9.297,4.259,19.842,0.496,29.272l-3.472,8.096c-1.877,4-0.156,8.764,3.844,10.641c4,1.877,8.764,0.155,10.641-3.844
			c0.076-0.162,0.146-0.326,0.211-0.492l3.472-8.096C257.617,109.625,257.328,94.226,251.19,80.768z"/>
	</g>
</g>
<g>
	<g>
		<path d="M323.19,80.768c-4.081-9.297-4.259-19.842-0.496-29.272l3.464-8.096c1.877-4,0.155-8.764-3.844-10.641
			c-4-1.877-8.764-0.155-10.641,3.844c-0.076,0.162-0.146,0.326-0.211,0.492l-3.464,8.096c-5.627,13.679-5.337,29.078,0.8,42.536
			c4.081,9.297,4.259,19.842,0.496,29.272l-3.472,8.096c-1.877,4-0.156,8.764,3.844,10.641c4,1.877,8.764,0.155,10.641-3.844
			c0.076-0.162,0.146-0.326,0.211-0.492l3.472-8.096C329.617,109.625,329.328,94.226,323.19,80.768z"/>
	</g>
</g>
<g>
</g>
<g>
</g>
<g>
</g>
<g>
</g>
<g>
</g>
<g>
</g>
<g>
</g>
<g>
</g>
<g>
</g>
<g>
</g>
<g>
</g>
<g>
</g>
<g>
</g>
<g>
</g>
<g>
</g>
</svg>
